<?xml version="1.0" standalone="no"?><!DOCTYPE svg PUBLIC "-//W3C//DTD SVG 1.1//EN" "http://www.w3.org/Graphics/SVG/1.1/DTD/svg11.dtd"><svg t="1606895224261" class="icon" viewBox="0 0 1024 1024" version="1.1" xmlns="http://www.w3.org/2000/svg" p-id="2799" xmlns:xlink="http://www.w3.org/1999/xlink" width="200" height="200"><defs><style type="text/css"></style></defs><path d="M358.4 102.4a102.4 102.4 0 0 1 102.4 102.4v153.6a102.4 102.4 0 0 1-102.4 102.4H204.8a102.4 102.4 0 0 1-102.4-102.4V204.8a102.4 102.4 0 0 1 102.4-102.4h153.6z m0 76.8H204.8a25.6 25.6 0 0 0-25.1904 20.992L179.2 204.8v153.6a25.6 25.6 0 0 0 20.992 25.1904L204.8 384h153.6a25.6 25.6 0 0 0 25.1904-20.992L384 358.4V204.8a25.6 25.6 0 0 0-20.992-25.1904L358.4 179.2z" p-id="2800"></path><path d="M670.0032 100.5568a102.4 102.4 0 0 1 144.7936 0l108.6464 108.6464a102.4 102.4 0 0 1 0 144.7936l-108.6464 108.6464a102.4 102.4 0 0 1-144.7936 0l-108.6464-108.6464a102.4 102.4 0 0 1 0-144.7936l108.6464-108.6464z m54.272 54.3232l-108.544 108.5952a25.6 25.6 0 0 0-3.0208 32.6656l2.9696 3.584 108.5952 108.544a25.6 25.6 0 0 0 32.6656 3.0208l3.584-2.9696 108.544-108.5952a25.6 25.6 0 0 0 3.0208-32.6656l-2.9696-3.584-108.5952-108.544a25.6 25.6 0 0 0-32.6656-3.0208l-3.584 2.9696z" p-id="2801"></path><path d="M358.4 563.2a102.4 102.4 0 0 1 102.4 102.4v153.6a102.4 102.4 0 0 1-102.4 102.4H204.8a102.4 102.4 0 0 1-102.4-102.4v-153.6a102.4 102.4 0 0 1 102.4-102.4h153.6z m0 76.8H204.8a25.6 25.6 0 0 0-25.1904 20.992L179.2 665.6v153.6a25.6 25.6 0 0 0 20.992 25.1904L204.8 844.8h153.6a25.6 25.6 0 0 0 25.1904-20.992L384 819.2v-153.6a25.6 25.6 0 0 0-20.992-25.1904L358.4 640zM819.2 563.2a102.4 102.4 0 0 1 102.4 102.4v153.6a102.4 102.4 0 0 1-102.4 102.4h-153.6a102.4 102.4 0 0 1-102.4-102.4v-153.6a102.4 102.4 0 0 1 102.4-102.4h153.6z m0 76.8h-153.6a25.6 25.6 0 0 0-25.1904 20.992L640 665.6v153.6a25.6 25.6 0 0 0 20.992 25.1904l4.608 0.4096h153.6a25.6 25.6 0 0 0 25.1904-20.992L844.8 819.2v-153.6a25.6 25.6 0 0 0-20.992-25.1904L819.2 640z"  p-id="2802"></path></svg>