<?xml version="1.0" standalone="no"?><!DOCTYPE svg PUBLIC "-//W3C//DTD SVG 1.1//EN" "http://www.w3.org/Graphics/SVG/1.1/DTD/svg11.dtd"><svg t="1615958759522" class="icon" viewBox="0 0 1024 1024" version="1.1" xmlns="http://www.w3.org/2000/svg" p-id="1840" xmlns:xlink="http://www.w3.org/1999/xlink" width="200" height="200"><defs><style type="text/css"></style></defs><path d="M512 0a512 512 0 1 1 0 1024A512 512 0 0 1 512 0z m0 85.333333a426.666667 426.666667 0 1 0 0 853.333334A426.666667 426.666667 0 0 0 512 85.333333z" p-id="1841"></path><path d="M469.333333 256m42.666667 0l0 0q42.666667 0 42.666667 42.666667l0 426.666666q0 42.666667-42.666667 42.666667l0 0q-42.666667 0-42.666667-42.666667l0-426.666666q0-42.666667 42.666667-42.666667Z" p-id="1842"></path><path d="M300.8 574.464a42.666667 42.666667 0 0 1 60.330667-60.330667L512 665.002667l150.869333-150.869334a42.666667 42.666667 0 1 1 60.330667 60.330667L542.208 755.456a42.666667 42.666667 0 0 1-60.416 0l-180.906667-180.992z" p-id="1843"></path></svg>