<?xml version="1.0" encoding="UTF-8"?>
<svg width="62px" height="62px" viewBox="0 0 62 62" version="1.1" xmlns="http://www.w3.org/2000/svg" xmlns:xlink="http://www.w3.org/1999/xlink">
    <title>icon_red_54</title>
    <defs>
        <linearGradient x1="-3.54931021%" y1="0%" x2="100%" y2="100%" id="linearGradient-1">
            <stop stop-color="#FF764D" offset="0%"></stop>
            <stop stop-color="#FF5340" offset="100%"></stop>
        </linearGradient>
        <circle id="path-2" cx="27" cy="27" r="27"></circle>
        <filter x="-13.0%" y="-9.3%" width="125.9%" height="125.9%" filterUnits="objectBoundingBox" id="filter-3">
            <feOffset dx="0" dy="2" in="SourceAlpha" result="shadowOffsetOuter1"></feOffset>
            <feGaussianBlur stdDeviation="2" in="shadowOffsetOuter1" result="shadowBlurOuter1"></feGaussianBlur>
            <feColorMatrix values="0 0 0 0 1   0 0 0 0 0.325490196   0 0 0 0 0.250980392  0 0 0 0.2 0" type="matrix" in="shadowBlurOuter1"></feColorMatrix>
        </filter>
        <filter x="-32.5%" y="-25.0%" width="165.0%" height="150.0%" filterUnits="objectBoundingBox" id="filter-4">
            <feOffset dx="1" dy="1" in="SourceAlpha" result="shadowOffsetOuter1"></feOffset>
            <feGaussianBlur stdDeviation="1" in="shadowOffsetOuter1" result="shadowBlurOuter1"></feGaussianBlur>
            <feColorMatrix values="0 0 0 0 0.6   0 0 0 0 0.0588235294   0 0 0 0 0  0 0 0 0.1 0" type="matrix" in="shadowBlurOuter1" result="shadowMatrixOuter1"></feColorMatrix>
            <feMerge>
                <feMergeNode in="shadowMatrixOuter1"></feMergeNode>
                <feMergeNode in="SourceGraphic"></feMergeNode>
            </feMerge>
        </filter>
    </defs>
    <g id="核销管理系统-1.3" stroke="none" stroke-width="1" fill="none" fill-rule="evenodd">
        <g id="5-2-数据看板-刷红包统计" transform="translate(-1256.000000, -314.000000)">
            <g id="内容区" transform="translate(0.000000, 60.000000)">
                <g id="右侧内容" transform="translate(240.000000, 14.000000)">
                    <g id="刷红包总计" transform="translate(0.000000, 46.000000)">
                        <g id="5" transform="translate(567.000000, 176.000000)">
                            <g id="icon_red_54" transform="translate(453.000000, 20.000000)">
                                <g id="椭圆形">
                                    <use fill="black" fill-opacity="1" filter="url(#filter-3)" xlink:href="#path-2"></use>
                                    <use fill="url(#linearGradient-1)" fill-rule="evenodd" xlink:href="#path-2"></use>
                                </g>
                                <g id="icon" filter="url(#filter-4)" transform="translate(16.999536, 14.000000)" fill="#FFFFFF">
                                    <path d="M20.0010198,8.34897786 L20.000464,24 C20.000464,25.1045695 19.1050335,26 18.000464,26 L2.00046398,26 C0.895894483,26 0.000463982733,25.1045695 0.000463982733,24 L-0.000994495641,8.34861592 C1.65635418,9.01325497 3.73952748,9.51338571 6.07509476,9.7808747 C6.43813048,11.6159762 8.05693995,13 9.9990055,13 C11.9410711,13 13.5598805,11.6159762 13.9229075,9.78045496 C16.2592,9.51386069 18.3431107,9.0137199 20.0010198,8.34897786 Z M10.000464,6.5 C11.3811759,6.5 12.500464,7.61928813 12.500464,9 C12.500464,10.3807119 11.3811759,11.5 10.000464,11.5 C8.61975211,11.5 7.50046398,10.3807119 7.50046398,9 C7.50046398,7.61928813 8.61975211,6.5 10.000464,6.5 Z" id="矩形-4"></path>
                                    <path d="M10.000464,6.5 C11.3811759,6.5 12.500464,7.61928813 12.500464,9 C12.500464,10.3807119 11.3811759,11.5 10.000464,11.5 C8.61975211,11.5 7.50046398,10.3807119 7.50046398,9 C7.50046398,7.61928813 8.61975211,6.5 10.000464,6.5 Z M18.000464,0 C19.1050335,-2.02906125e-16 20.000464,0.8954305 20.000464,2 L20.0010198,6.34897786 C18.3171977,7.0241098 16.193953,7.52945485 13.8131098,7.79358215 C13.3014182,6.1734641 11.7872505,5 9.9990055,5 C8.21076056,5 6.69659284,6.1734641 6.18453441,7.79236022 C3.80476736,7.52898339 1.68226483,7.0236458 -0.000994495641,6.34861592 L0.000463982733,2 C0.000463982733,0.8954305 0.895894483,2.02906125e-16 2.00046398,0 L18.000464,0 Z" id="矩形-4备份"></path>
                                </g>
                            </g>
                        </g>
                    </g>
                </g>
            </g>
        </g>
    </g>
</svg>