<?xml version="1.0" standalone="no"?><!DOCTYPE svg PUBLIC "-//W3C//DTD SVG 1.1//EN" "http://www.w3.org/Graphics/SVG/1.1/DTD/svg11.dtd"><svg t="1609392924551" class="icon" viewBox="0 0 1024 1024" version="1.1" xmlns="http://www.w3.org/2000/svg" p-id="1595" xmlns:xlink="http://www.w3.org/1999/xlink" width="200" height="200"><defs><style type="text/css"></style></defs><path d="M36.566205 365.808313a36.566205 36.566205 0 0 1-36.566205-36.566205v-292.529638A36.566205 36.566205 0 0 1 29.984288 0.731324L36.566205 0.146265h292.529638a36.566205 36.566205 0 0 1 0 73.132409H124.837023l222.322526 222.322526a36.566205 36.566205 0 1 1-51.777746 51.704613L73.13241 124.983288v204.25882a36.566205 36.566205 0 0 1-36.566205 36.566205zM658.191687 36.71247a36.566205 36.566205 0 0 1 36.566205-36.566205h292.529638a36.566205 36.566205 0 0 1 35.981146 29.984288l0.585059 6.581917v292.529638a36.566205 36.566205 0 0 1-73.132409 0V125.056421L728.3988 347.378946a36.566205 36.566205 0 1 1-51.631481-51.704614l222.249393-222.322525H694.757892a36.566205 36.566205 0 0 1-36.566205-36.566205zM987.28753 658.337952a36.566205 36.566205 0 0 1 36.566205 36.566205v292.529638a36.566205 36.566205 0 0 1-29.984288 35.981146l-6.581917 0.585059h-292.529638a36.566205 36.566205 0 1 1 0-73.13241h204.25882l-222.322525-222.322525a36.566205 36.566205 0 1 1 51.777746-51.631481L950.721326 899.236109V694.831024a36.566205 36.566205 0 0 1 36.566204-36.566205zM365.662048 987.433795a36.566205 36.566205 0 0 1-36.566205 36.566205h-292.529638a36.566205 36.566205 0 0 1-35.981146-29.984288L0 987.433795v-292.529638a36.566205 36.566205 0 1 1 73.13241 0v204.25882l222.322525-222.322526a36.566205 36.566205 0 1 1 51.631481 51.777746l-222.249393 222.322526H329.095843a36.566205 36.566205 0 0 1 36.566205 36.566205z" p-id="1596"></path></svg>