<?xml version="1.0" encoding="UTF-8"?>
<svg width="62px" height="62px" viewBox="0 0 62 62" version="1.1" xmlns="http://www.w3.org/2000/svg" xmlns:xlink="http://www.w3.org/1999/xlink">
    <title>icon_winning_time_54</title>
    <defs>
        <linearGradient x1="-3.54931021%" y1="0%" x2="100%" y2="100%" id="linearGradient-1">
            <stop stop-color="#FF764D" offset="0%"></stop>
            <stop stop-color="#FF5340" offset="100%"></stop>
        </linearGradient>
        <circle id="path-2" cx="27" cy="27" r="27"></circle>
        <filter x="-13.0%" y="-9.3%" width="125.9%" height="125.9%" filterUnits="objectBoundingBox" id="filter-3">
            <feOffset dx="0" dy="2" in="SourceAlpha" result="shadowOffsetOuter1"></feOffset>
            <feGaussianBlur stdDeviation="2" in="shadowOffsetOuter1" result="shadowBlurOuter1"></feGaussianBlur>
            <feColorMatrix values="0 0 0 0 1   0 0 0 0 0.325490196   0 0 0 0 0.250980392  0 0 0 0.2 0" type="matrix" in="shadowBlurOuter1"></feColorMatrix>
        </filter>
        <filter x="-25.0%" y="-25.0%" width="150.0%" height="150.0%" filterUnits="objectBoundingBox" id="filter-4">
            <feOffset dx="1" dy="1" in="SourceAlpha" result="shadowOffsetOuter1"></feOffset>
            <feGaussianBlur stdDeviation="1" in="shadowOffsetOuter1" result="shadowBlurOuter1"></feGaussianBlur>
            <feColorMatrix values="0 0 0 0 0.6   0 0 0 0 0.0588235294   0 0 0 0 0  0 0 0 0.1 0" type="matrix" in="shadowBlurOuter1" result="shadowMatrixOuter1"></feColorMatrix>
            <feMerge>
                <feMergeNode in="shadowMatrixOuter1"></feMergeNode>
                <feMergeNode in="SourceGraphic"></feMergeNode>
            </feMerge>
        </filter>
    </defs>
    <g id="核销管理系统-1.3" stroke="none" stroke-width="1" fill="none" fill-rule="evenodd">
        <g id="5-4-数据看板-礼包抽奖统计" transform="translate(-1255.000000, -1567.000000)">
            <g id="内容区" transform="translate(0.000000, 60.000000)">
                <g id="右侧内容" transform="translate(240.000000, 14.000000)">
                    <g id="中奖统计" transform="translate(0.000000, 1413.000000)">
                        <g id="6" transform="translate(567.000000, 62.000000)">
                            <g id="icon_winning_time_54" transform="translate(452.000000, 20.000000)">
                                <g id="椭圆形">
                                    <use fill="black" fill-opacity="1" filter="url(#filter-3)" xlink:href="#path-2"></use>
                                    <use fill="url(#linearGradient-1)" fill-rule="evenodd" xlink:href="#path-2"></use>
                                </g>
                                <g id="icon" filter="url(#filter-4)" transform="translate(14.000000, 16.000000)" fill="#FFFFFF" fill-rule="nonzero">
                                    <path d="M24.9937376,4.67123247 L22.2915615,4.67123247 L22.2915615,0.991977322 C22.2915615,0.431429425 21.8464753,0 21.2859274,0 L4.69855158,0 C4.15228121,0 3.69291748,0.445706956 3.69291748,0.991977322 L3.69291748,4.67123247 L0.991362152,4.67123247 C0.444276097,4.67225729 0.00103041069,5.11550298 2.78601027e-06,5.66258904 L2.78601027e-06,11.1817821 C-0.00149737531,12.715751 0.602891908,14.1882388 1.68164927,15.2788099 L1.69592678,15.2788099 C2.63993401,16.2240132 3.87614324,16.8217696 5.20323091,16.9747312 C6.71168206,19.3025879 9.22700885,20.912844 12.0154708,21.2002567 L12.0154708,23.7013059 L7.64592854,23.7013059 C7.09965817,23.7013059 6.64029444,24.1470129 6.64029444,24.70694 C6.64029444,25.2532104 7.09965817,25.7131949 7.64592854,25.7131949 L18.3391711,25.7131949 C18.8854415,25.7131949 19.3448052,25.2538312 19.3448052,24.7075608 C19.3448052,24.1470129 18.8854415,23.7013059 18.3391711,23.7013059 L13.9988047,23.7013059 L13.9988047,21.2002567 C16.7872667,20.8985664 19.316871,19.3032086 20.8110446,16.9747312 C22.1076087,16.8294638 23.3176048,16.252234 24.2463403,15.33592 L24.3040712,15.2930875 C25.3914863,14.2073784 26.0017535,12.7333107 26.0000028,11.1966804 L26.0000028,5.66320982 C26.0000028,5.11693945 25.5542855,4.67185325 24.9943583,4.67185322 L24.9937376,4.67123247 Z M3.1044353,13.8696807 C2.41414818,13.165116 1.9833395,12.2308695 1.9833395,11.1817821 L1.9833395,6.66884392 L3.69291748,6.66884392 L3.69291748,12.1160286 C3.72147251,12.9639892 3.8369342,13.7833948 4.08089358,14.6028004 C3.70719498,14.4159511 3.39122725,14.1570934 3.10381452,13.8696807 L3.1044353,13.8696807 Z M17.1032344,9.58642431 L14.9181529,11.1675046 L15.7524568,13.7405622 C15.8238444,13.941689 15.7090034,14.1428159 15.5078766,14.2148242 C15.390472,14.2552246 15.2605997,14.2335014 15.1627331,14.1570934 L12.9925498,12.5760131 L10.8074683,14.1570934 C10.6497948,14.2862118 10.4058355,14.2433793 10.2903738,14.085085 C10.2222641,13.9839648 10.201425,13.8582505 10.2332637,13.7405622 L11.0812243,11.1675046 L8.88186527,9.57214681 C8.72419177,9.45730587 8.68073845,9.21272574 8.79557939,9.05505223 C8.86510766,8.95683041 8.97755633,8.89795072 9.09789038,8.89675797 L11.7994457,8.89675797 L12.6331288,6.32370034 C12.7040965,6.13175525 12.9099682,6.02585531 13.1073908,6.07974096 C13.2228525,6.12319427 13.3085176,6.2088594 13.3519709,6.32370034 L14.185654,8.89675797 L16.9021076,8.89675797 C17.1032344,8.89675797 17.2758062,9.05505223 17.2758062,9.27045658 C17.2663682,9.39585781 17.2035159,9.51116247 17.1032344,9.5870451 L17.1032344,9.58642431 Z M24.002381,11.1817821 C24.002381,12.2308695 23.5709515,13.1508385 22.8955627,13.8696807 L22.8521094,13.913134 C22.5646967,14.1862692 22.2630065,14.4302286 21.9178629,14.5885228 C22.162443,13.7691173 22.2779047,12.9497117 22.305839,12.1017511 L22.305839,6.66884392 L24.0166585,6.66884392 L24.0166585,11.1817821 L24.002381,11.1817821 Z" id="形状"></path>
                                </g>
                            </g>
                        </g>
                    </g>
                </g>
            </g>
        </g>
    </g>
</svg>