<?xml version="1.0" standalone="no"?><!DOCTYPE svg PUBLIC "-//W3C//DTD SVG 1.1//EN" "http://www.w3.org/Graphics/SVG/1.1/DTD/svg11.dtd"><svg t="1609392930790" class="icon" viewBox="0 0 1024 1024" version="1.1" xmlns="http://www.w3.org/2000/svg" p-id="1845" xmlns:xlink="http://www.w3.org/1999/xlink" width="200" height="200"><defs><style type="text/css"></style></defs><path d="M554.586353 822.633412a60.235294 60.235294 0 1 1-85.172706 85.172706 60.235294 60.235294 0 0 1 85.172706-85.172706z m415.262118-415.262118a45.176471 45.176471 0 1 1-63.849412 63.849412 557.176471 557.176471 0 0 0-787.998118 0A45.176471 45.176471 0 1 1 54.211765 407.371294c252.867765-252.928 662.829176-252.928 915.696941 0z m-127.698824 127.698824a45.176471 45.176471 0 1 1-63.969882 63.969882 376.470588 376.470588 0 0 0-532.35953 0A45.176471 45.176471 0 1 1 181.910588 535.130353a466.823529 466.823529 0 0 1 660.178824 0z m-127.819294 127.819294a45.176471 45.176471 0 1 1-63.849412 63.849412 195.764706 195.764706 0 0 0-276.901647 0 45.176471 45.176471 0 1 1-63.849412-63.849412 286.117647 286.117647 0 0 1 404.600471 0z" p-id="1846"></path></svg>