<?xml version="1.0" standalone="no"?><!DOCTYPE svg PUBLIC "-//W3C//DTD SVG 1.1//EN" "http://www.w3.org/Graphics/SVG/1.1/DTD/svg11.dtd"><svg t="1610603807217" class="icon" viewBox="0 0 1024 1024" version="1.1" xmlns="http://www.w3.org/2000/svg" p-id="2781" xmlns:xlink="http://www.w3.org/1999/xlink" width="200" height="200"><defs><style type="text/css"></style></defs><path d="M355.584 0C394.837333 0 426.666667 31.829333 426.666667 71.082667v284.501333c0 39.253333-31.829333 71.082667-71.082667 71.082667H71.082667A71.082667 71.082667 0 0 1 0 355.584V71.082667C0 31.829333 31.829333 0 71.082667 0h284.501333zM341.333333 85.333333H85.333333v256h256V85.333333zM952.917333 597.333333c39.253333 0 71.082667 31.829333 71.082667 71.082667v284.501333c0 39.253333-31.829333 71.082667-71.082667 71.082667H668.416A71.082667 71.082667 0 0 1 597.333333 952.917333V668.416c0-39.253333 31.829333-71.082667 71.082667-71.082667h284.501333zM938.666667 682.666667H682.666667v256h256V682.666667z" p-id="2782"></path><path d="M0 597.333333m42.666667 0l256 0q42.666667 0 42.666666 42.666667l0 0q0 42.666667-42.666666 42.666667l-256 0q-42.666667 0-42.666667-42.666667l0 0q0-42.666667 42.666667-42.666667Z" p-id="2783"></path><path d="M0 597.333333m42.666667 0l0 0q42.666667 0 42.666666 42.666667l0 256q0 42.666667-42.666666 42.666667l0 0q-42.666667 0-42.666667-42.666667l0-256q0-42.666667 42.666667-42.666667Z" p-id="2784"></path><path d="M44.714667 605.013333a42.666667 42.666667 0 0 1 55.978666 22.528 513.621333 513.621333 0 0 0 314.026667 286.72 42.666667 42.666667 0 0 1-26.197333 81.322667A598.954667 598.954667 0 0 1 22.186667 661.077333 42.666667 42.666667 0 0 1 44.714667 605.013333z" p-id="2785"></path><path d="M1024 426.666667m-42.666667 0l-256 0q-42.666667 0-42.666666-42.666667l0 0q0-42.666667 42.666666-42.666667l256 0q42.666667 0 42.666667 42.666667l0 0q0 42.666667-42.666667 42.666667Z" p-id="2786"></path><path d="M1024 426.666667m-42.666667 0l0 0q-42.666667 0-42.666666-42.666667l0-256q0-42.666667 42.666666-42.666667l0 0q42.666667 0 42.666667 42.666667l0 256q0 42.666667-42.666667 42.666667Z" p-id="2787"></path><path d="M979.882667 418.986667a42.666667 42.666667 0 0 1-55.978667-22.442667 513.621333 513.621333 0 0 0-314.026667-286.805333 42.666667 42.666667 0 1 1 26.112-81.237334A598.954667 598.954667 0 0 1 1002.325333 363.008 42.666667 42.666667 0 0 1 979.882667 419.157333z" p-id="2788"></path></svg>