<?xml version="1.0" encoding="UTF-8"?>
<svg width="62px" height="62px" viewBox="0 0 62 62" version="1.1" xmlns="http://www.w3.org/2000/svg" xmlns:xlink="http://www.w3.org/1999/xlink">
    <title>icon_recycle_54</title>
    <defs>
        <linearGradient x1="-3.54931021%" y1="0%" x2="100%" y2="100%" id="linearGradient-1">
            <stop stop-color="#0BD9A6" offset="0%"></stop>
            <stop stop-color="#0BD969" offset="100%"></stop>
        </linearGradient>
        <circle id="path-2" cx="27" cy="27" r="27"></circle>
        <filter x="-13.0%" y="-9.3%" width="125.9%" height="125.9%" filterUnits="objectBoundingBox" id="filter-3">
            <feOffset dx="0" dy="2" in="SourceAlpha" result="shadowOffsetOuter1"></feOffset>
            <feGaussianBlur stdDeviation="2" in="shadowOffsetOuter1" result="shadowBlurOuter1"></feGaussianBlur>
            <feColorMatrix values="0 0 0 0 0.0431372549   0 0 0 0 0.850980392   0 0 0 0 0.411764706  0 0 0 0.2 0" type="matrix" in="shadowBlurOuter1"></feColorMatrix>
        </filter>
        <filter x="-25.0%" y="-25.0%" width="150.0%" height="150.0%" filterUnits="objectBoundingBox" id="filter-4">
            <feOffset dx="1" dy="1" in="SourceAlpha" result="shadowOffsetOuter1"></feOffset>
            <feGaussianBlur stdDeviation="1" in="shadowOffsetOuter1" result="shadowBlurOuter1"></feGaussianBlur>
            <feColorMatrix values="0 0 0 0 0   0 0 0 0 0.6   0 0 0 0 0.318987342  0 0 0 0.1 0" type="matrix" in="shadowBlurOuter1" result="shadowMatrixOuter1"></feColorMatrix>
            <feMerge>
                <feMergeNode in="shadowMatrixOuter1"></feMergeNode>
                <feMergeNode in="SourceGraphic"></feMergeNode>
            </feMerge>
        </filter>
    </defs>
    <g id="核销管理系统-1.3" stroke="none" stroke-width="1" fill="none" fill-rule="evenodd">
        <g id="5-2-数据看板-刷红包统计" transform="translate(-1802.000000, -200.000000)">
            <g id="内容区" transform="translate(0.000000, 60.000000)">
                <g id="右侧内容" transform="translate(240.000000, 14.000000)">
                    <g id="刷红包总计" transform="translate(0.000000, 46.000000)">
                        <g id="3" transform="translate(1114.000000, 62.000000)">
                            <g id="icon_recycle_54" transform="translate(452.000000, 20.000000)">
                                <g id="椭圆形">
                                    <use fill="black" fill-opacity="1" filter="url(#filter-3)" xlink:href="#path-2"></use>
                                    <use fill="url(#linearGradient-1)" fill-rule="evenodd" xlink:href="#path-2"></use>
                                </g>
                                <g id="icon" filter="url(#filter-4)" transform="translate(14.000000, 15.000000)" fill="#FFFFFF" fill-rule="nonzero">
                                    <path d="M17.3167432,16.9982947 L17.3200613,14.7254514 C17.3200613,14.7254514 14.2575294,18.4980394 14.2575294,20.0309644 C14.2575294,21.5638894 17.3200613,25.3331594 17.3200613,25.3331594 L17.3167432,23.0669522 L20.3726391,23.0669522 C21.1340751,23.0749941 21.8406187,22.6716174 22.2207759,22.011822 L26,15.4554157 C25.4459352,16.4163798 24.4183142,17.0055829 23.3090863,16.9982947 L17.3167432,16.9982947 L17.3167432,16.9982947 Z M19.0487494,1.83494603 C18.6209035,1.08196657 17.8205596,0.617904871 16.9545212,0.620642051 C16.0884828,0.623403528 15.2911014,1.09253737 14.8680449,1.84821811 C14.8680449,1.84821811 14.1646248,3.05929519 13.4578867,4.29028038 L14.884635,6.76220483 L12.9004594,7.87374133 C12.9004594,7.87374133 17.6949974,8.63688579 19.0222052,7.87042331 C20.349413,7.10396083 22.0847371,2.56822832 22.0847371,2.56822832 L20.1204696,3.70630897 C20.1237876,3.70630897 19.3540071,2.36582913 19.0487494,1.83494603 L19.0487494,1.83494603 Z M25.4989791,15.1534759 C25.9305765,14.4028093 25.9267776,13.4784157 25.489025,12.7313217 C25.489025,12.7313217 23.9726901,10.1034504 22.7649311,8.01641617 L17.5125064,11.0524039 L20.5750383,16.3545989 C21.9951506,16.3545989 23.3953548,16.3579436 23.3953548,16.3579436 C24.2616183,16.3619752 25.0639513,15.9025953 25.4989791,15.1534759 Z M7.22001021,13.9191727 L9.18759571,15.0572533 C9.18759571,15.0572533 7.45227157,10.5215208 6.12506381,9.75505833 C4.79785605,8.98859585 0,9.75505833 0,9.75505833 L1.9675855,10.8831849 L0.43797856,13.5309644 C0.0530036046,14.1878861 0.0492056797,15.000642 0.428024502,15.6611329 L4.21056662,22.2142212 C3.65953049,21.252556 3.66332484,20.0699824 4.22052067,19.111873 L7.22001021,13.9191727 Z M4.72485962,21.9288715 C5.1588291,22.6790548 5.96183858,23.1388221 6.82848392,23.1333615 L12.2733538,23.1333615 L12.2733538,17.0646551 L6.14497192,17.0646551 C5.43823379,18.2923222 4.7381317,19.5067173 4.73481368,19.5100354 C4.29710062,20.2559512 4.2933005,21.1793784 4.72485962,21.9288715 Z M4.3797856,6.59630386 L9.65543645,9.63892765 C9.65543645,9.63892765 13.6105156,2.77394552 14.3338438,1.53300626 C14.8697054,0.581123968 15.8793344,-0.00560383954 16.9716692,4.0358597e-05 L9.40658499,4.0358597e-05 C8.64903668,0.00973373794 7.95227279,0.416704327 7.57172027,1.07180157 C6.90148035,2.15679391 4.3797856,6.59630386 4.3797856,6.59630386 L4.3797856,6.59630386 Z" id="形状"></path>
                                </g>
                            </g>
                        </g>
                    </g>
                </g>
            </g>
        </g>
    </g>
</svg>