<?xml version="1.0" encoding="UTF-8"?>
<svg width="62px" height="62px" viewBox="0 0 62 62" version="1.1" xmlns="http://www.w3.org/2000/svg" xmlns:xlink="http://www.w3.org/1999/xlink">
    <title>icon_deduction_54备份</title>
    <defs>
        <linearGradient x1="-3.54931021%" y1="0%" x2="100%" y2="100%" id="linearGradient-1">
            <stop stop-color="#0BD9A6" offset="0%"></stop>
            <stop stop-color="#0BD969" offset="100%"></stop>
        </linearGradient>
        <circle id="path-2" cx="27" cy="27" r="27"></circle>
        <filter x="-13.0%" y="-9.3%" width="125.9%" height="125.9%" filterUnits="objectBoundingBox" id="filter-3">
            <feOffset dx="0" dy="2" in="SourceAlpha" result="shadowOffsetOuter1"></feOffset>
            <feGaussianBlur stdDeviation="2" in="shadowOffsetOuter1" result="shadowBlurOuter1"></feGaussianBlur>
            <feColorMatrix values="0 0 0 0 0.0431372549   0 0 0 0 0.850980392   0 0 0 0 0.411764706  0 0 0 0.2 0" type="matrix" in="shadowBlurOuter1"></feColorMatrix>
        </filter>
        <filter x="-23.2%" y="-23.2%" width="146.4%" height="146.4%" filterUnits="objectBoundingBox" id="filter-4">
            <feOffset dx="1" dy="1" in="SourceAlpha" result="shadowOffsetOuter1"></feOffset>
            <feGaussianBlur stdDeviation="1" in="shadowOffsetOuter1" result="shadowBlurOuter1"></feGaussianBlur>
            <feColorMatrix values="0 0 0 0 0   0 0 0 0 0.6   0 0 0 0 0.318987342  0 0 0 0.1 0" type="matrix" in="shadowBlurOuter1" result="shadowMatrixOuter1"></feColorMatrix>
            <feMerge>
                <feMergeNode in="shadowMatrixOuter1"></feMergeNode>
                <feMergeNode in="SourceGraphic"></feMergeNode>
            </feMerge>
        </filter>
    </defs>
    <g id="核销管理系统-1.3" stroke="none" stroke-width="1" fill="none" fill-rule="evenodd">
        <g id="5-1-数据看板-停车缴费统计" transform="translate(-709.000000, -314.000000)">
            <g id="内容区" transform="translate(0.000000, 60.000000)">
                <g id="右侧内容" transform="translate(240.000000, 14.000000)">
                    <g id="缴费统计" transform="translate(0.000000, 46.000000)">
                        <g id="4" transform="translate(20.000000, 176.000000)">
                            <g id="icon_deduction_54备份" transform="translate(453.000000, 20.000000)">
                                <g id="椭圆形">
                                    <use fill="black" fill-opacity="1" filter="url(#filter-3)" xlink:href="#path-2"></use>
                                    <use fill="url(#linearGradient-1)" fill-rule="evenodd" xlink:href="#path-2"></use>
                                </g>
                                <g id="椭圆形-3" filter="url(#filter-4)" transform="translate(13.000000, 13.000000)" fill="#FFFFFF">
                                    <path d="M14,0 C21.7319865,0 28,6.2680135 28,14 C28,21.7319865 21.7319865,28 14,28 C6.2680135,28 0,21.7319865 0,14 C0,6.2680135 6.2680135,0 14,0 Z M10.5604167,8.1 L8.6375,8.1 L8.6375,10.1041667 L7.52708333,10.1041667 L7.52708333,11.0520833 L8.6375,11.0520833 L8.6375,14.6270833 L7.5,15.16875 L7.5,16.1979167 L8.6375,15.65625 L8.6375,18.9604167 L7.825,18.9604167 L7.825,19.921875 L10.5604167,19.921875 L10.5604167,14.9520833 L11.5083333,14.4645833 L11.5083333,13.4083333 L10.5604167,13.86875 L10.5604167,11.0520833 L11.5354167,11.0520833 L11.5354167,10.1041667 L10.5604167,10.1041667 L10.5604167,8.1 Z M20.0666667,8.12708333 L12.0770833,8.53333333 L12.0770833,18.2291667 L11.6166667,18.5270833 L11.6166667,19.8947917 L15.86875,17.2 L15.86875,16.0083333 L14.0541667,17.2 L14.0541667,13.8145833 L15.9770833,13.8145833 L18.1166667,19.921875 L19.7145833,19.921875 L20.5,15.5208333 L19.3354167,15.5208333 L19.0916667,16.875 L18.0625,13.8145833 L20.175,13.8145833 L20.175,12.8666667 L17.81875,12.8666667 L17.6020833,9.2375 L20.0666667,9.12916667 L20.0666667,8.12708333 Z M16.5729167,18.1479167 L14.3791667,18.1479167 L15.0020833,19.921875 L17.25,19.921875 L16.5729167,18.1479167 Z M15.5979167,9.37291667 L15.8416667,12.8666667 L14.0541667,12.8666667 L14.0541667,9.48125 L15.5979167,9.37291667 Z" id="椭圆形-2"></path>
                                </g>
                            </g>
                        </g>
                    </g>
                </g>
            </g>
        </g>
    </g>
</svg>