<?xml version="1.0" standalone="no"?><!DOCTYPE svg PUBLIC "-//W3C//DTD SVG 1.1//EN" "http://www.w3.org/Graphics/SVG/1.1/DTD/svg11.dtd"><svg t="1615958762908" class="icon" viewBox="0 0 1024 1024" version="1.1" xmlns="http://www.w3.org/2000/svg" p-id="1967" xmlns:xlink="http://www.w3.org/1999/xlink" width="200" height="200"><defs><style type="text/css"></style></defs><path d="M512 0a512 512 0 1 1 0 1024A512 512 0 0 1 512 0z m0 85.333333a426.666667 426.666667 0 1 0 0 853.333334A426.666667 426.666667 0 0 0 512 85.333333z" p-id="1968"></path><path d="M469.333333 256m42.666667 0l0 0q42.666667 0 42.666667 42.666667l0 426.666666q0 42.666667-42.666667 42.666667l0 0q-42.666667 0-42.666667-42.666667l0-426.666666q0-42.666667 42.666667-42.666667Z" p-id="1969"></path><path d="M723.2 449.28a42.666667 42.666667 0 0 1-60.330667 60.330667L512 358.741333 361.130667 509.610667a42.666667 42.666667 0 1 1-60.330667-60.330667l180.992-180.992a42.666667 42.666667 0 0 1 60.416 0l180.906667 180.906667z" p-id="1970"></path></svg>