<?xml version="1.0" standalone="no"?><!DOCTYPE svg PUBLIC "-//W3C//DTD SVG 1.1//EN" "http://www.w3.org/Graphics/SVG/1.1/DTD/svg11.dtd"><svg t="1619588987655" class="icon" viewBox="0 0 1024 1024" version="1.1" xmlns="http://www.w3.org/2000/svg" p-id="2031" xmlns:xlink="http://www.w3.org/1999/xlink" width="200" height="200"><defs><style type="text/css"></style></defs><path d="M256 42.666667a42.666667 42.666667 0 0 1 42.666667 42.666666v170.666667a42.666667 42.666667 0 0 1-42.666667 42.666667H85.333333A42.666667 42.666667 0 0 1 42.666667 256V85.333333A42.666667 42.666667 0 0 1 85.333333 42.666667h170.666667z m-42.666667 85.333333h-85.333333v85.333333h85.333333v-85.333333zM597.333333 42.666667a42.666667 42.666667 0 0 1 42.666667 42.666666v170.666667a42.666667 42.666667 0 0 1-42.666667 42.666667H426.666667a42.666667 42.666667 0 0 1-42.666667-42.666667V85.333333A42.666667 42.666667 0 0 1 426.666667 42.666667h170.666666z m-42.666666 85.333333h-85.333334v85.333333h85.333334v-85.333333zM938.666667 42.666667a42.666667 42.666667 0 0 1 42.666666 42.666666v170.666667a42.666667 42.666667 0 0 1-42.666666 42.666667H768a42.666667 42.666667 0 0 1-42.666667-42.666667V85.333333A42.666667 42.666667 0 0 1 768 42.666667h170.666667z m-42.666667 85.333333h-85.333333v85.333333h85.333333v-85.333333zM256 384a42.666667 42.666667 0 0 1 42.666667 42.666667v170.666666a42.666667 42.666667 0 0 1-42.666667 42.666667H85.333333A42.666667 42.666667 0 0 1 42.666667 597.333333V426.666667a42.666667 42.666667 0 0 1 42.666666-42.666667h170.666667z m-42.666667 85.333333h-85.333333v85.333334h85.333333v-85.333334zM597.333333 384a42.666667 42.666667 0 0 1 42.666667 42.666667v170.666666a42.666667 42.666667 0 0 1-42.666667 42.666667H426.666667a42.666667 42.666667 0 0 1-42.666667-42.666667V426.666667a42.666667 42.666667 0 0 1 42.666667-42.666667h170.666666z m-42.666666 85.333333h-85.333334v85.333334h85.333334v-85.333334zM938.666667 384a42.666667 42.666667 0 0 1 42.666666 42.666667v170.666666a42.666667 42.666667 0 0 1-42.666666 42.666667H768a42.666667 42.666667 0 0 1-42.666667-42.666667V426.666667a42.666667 42.666667 0 0 1 42.666667-42.666667h170.666667z m-42.666667 85.333333h-85.333333v85.333334h85.333333v-85.333334zM256 725.333333a42.666667 42.666667 0 0 1 42.666667 42.666667v170.666667a42.666667 42.666667 0 0 1-42.666667 42.666666H85.333333a42.666667 42.666667 0 0 1-42.666666-42.666666V768a42.666667 42.666667 0 0 1 42.666666-42.666667h170.666667z m-42.666667 85.333334h-85.333333v85.333333h85.333333v-85.333333zM597.333333 725.333333a42.666667 42.666667 0 0 1 42.666667 42.666667v170.666667a42.666667 42.666667 0 0 1-42.666667 42.666666H426.666667a42.666667 42.666667 0 0 1-42.666667-42.666666V768a42.666667 42.666667 0 0 1 42.666667-42.666667h170.666666z m-42.666666 85.333334h-85.333334v85.333333h85.333334v-85.333333zM938.666667 725.333333a42.666667 42.666667 0 0 1 42.666666 42.666667v170.666667a42.666667 42.666667 0 0 1-42.666666 42.666666H768a42.666667 42.666667 0 0 1-42.666667-42.666666V768a42.666667 42.666667 0 0 1 42.666667-42.666667h170.666667z m-42.666667 85.333334h-85.333333v85.333333h85.333333v-85.333333z" p-id="2032"></path></svg>