<?xml version="1.0" standalone="no"?><!DOCTYPE svg PUBLIC "-//W3C//DTD SVG 1.1//EN" "http://www.w3.org/Graphics/SVG/1.1/DTD/svg11.dtd"><svg t="1610502468602" class="icon" viewBox="0 0 1024 1024" version="1.1" xmlns="http://www.w3.org/2000/svg" p-id="1632" xmlns:xlink="http://www.w3.org/1999/xlink" width="200" height="200"><defs><style type="text/css"></style></defs><path d="M512.283736 0a511.704343 511.704343 0 0 1 442.84568 254.785587 42.66336 42.66336 0 0 1-73.807613 42.919341 426.633603 426.633603 0 1 0 25.427362 377.058778 42.66336 42.66336 0 0 1 78.84189 32.594807A512.04565 512.04565 0 1 1 512.283736 0z" p-id="1633"></path><path d="M682.937177 341.306882a42.66336 42.66336 0 0 1 0-85.32672h213.231475L896.253979 42.66336a42.66336 42.66336 0 1 1 85.32672 0v255.126895A42.66336 42.66336 0 0 1 938.917339 341.306882H682.937177z" p-id="1634"></path></svg>