<?xml version="1.0" encoding="UTF-8"?>
<svg width="62px" height="62px" viewBox="0 0 62 62" version="1.1" xmlns="http://www.w3.org/2000/svg" xmlns:xlink="http://www.w3.org/1999/xlink">
    <title>icon_should_pay_54</title>
    <defs>
        <linearGradient x1="-3.54931021%" y1="0%" x2="100%" y2="100%" id="linearGradient-1">
            <stop stop-color="#FF764D" offset="0%"></stop>
            <stop stop-color="#FF5340" offset="100%"></stop>
        </linearGradient>
        <circle id="path-2" cx="27" cy="27" r="27"></circle>
        <filter x="-13.0%" y="-9.3%" width="125.9%" height="125.9%" filterUnits="objectBoundingBox" id="filter-3">
            <feOffset dx="0" dy="2" in="SourceAlpha" result="shadowOffsetOuter1"></feOffset>
            <feGaussianBlur stdDeviation="2" in="shadowOffsetOuter1" result="shadowBlurOuter1"></feGaussianBlur>
            <feColorMatrix values="0 0 0 0 1   0 0 0 0 0.325490196   0 0 0 0 0.250980392  0 0 0 0.2 0" type="matrix" in="shadowBlurOuter1"></feColorMatrix>
        </filter>
        <filter x="-23.2%" y="-23.2%" width="146.4%" height="146.4%" filterUnits="objectBoundingBox" id="filter-4">
            <feOffset dx="1" dy="1" in="SourceAlpha" result="shadowOffsetOuter1"></feOffset>
            <feGaussianBlur stdDeviation="1" in="shadowOffsetOuter1" result="shadowBlurOuter1"></feGaussianBlur>
            <feColorMatrix values="0 0 0 0 0.6   0 0 0 0 0.0588235294   0 0 0 0 0  0 0 0 0.1 0" type="matrix" in="shadowBlurOuter1" result="shadowMatrixOuter1"></feColorMatrix>
            <feMerge>
                <feMergeNode in="shadowMatrixOuter1"></feMergeNode>
                <feMergeNode in="SourceGraphic"></feMergeNode>
            </feMerge>
        </filter>
    </defs>
    <g id="核销管理系统-1.3" stroke="none" stroke-width="1" fill="none" fill-rule="evenodd">
        <g id="5-1-数据看板-停车缴费统计" transform="translate(-709.000000, -200.000000)">
            <g id="内容区" transform="translate(0.000000, 60.000000)">
                <g id="右侧内容" transform="translate(240.000000, 14.000000)">
                    <g id="缴费统计" transform="translate(0.000000, 46.000000)">
                        <g id="1" transform="translate(20.000000, 62.000000)">
                            <g id="icon_should_pay_54" transform="translate(453.000000, 20.000000)">
                                <g id="椭圆形">
                                    <use fill="black" fill-opacity="1" filter="url(#filter-3)" xlink:href="#path-2"></use>
                                    <use fill="url(#linearGradient-1)" fill-rule="evenodd" xlink:href="#path-2"></use>
                                </g>
                                <g id="icon" filter="url(#filter-4)" transform="translate(13.000000, 13.000000)" fill="#FFFFFF">
                                    <path d="M14,0 C21.7319865,0 28,6.2680135 28,14 C28,21.7319865 21.7319865,28 14,28 C6.2680135,28 0,21.7319865 0,14 C0,6.2680135 6.2680135,0 14,0 Z M10.9393398,7.52512627 C10.7440777,7.32986412 10.4274952,7.32986412 10.232233,7.52512627 L10.232233,7.52512627 L9.52512627,8.23223305 C9.32986412,8.42749519 9.32986412,8.74407768 9.52512627,8.93933983 L9.52512627,8.93933983 L13.007,12.421 L13,12.5 L13,13 L9.5,13 C9.25454011,13 9.05039163,13.1768752 9.00805567,13.4101244 L9,13.5 L9,14.5 C9,14.7761424 9.22385763,15 9.5,15 L9.5,15 L13,15 L13,17 L9.5,17 C9.25454011,17 9.05039163,17.1768752 9.00805567,17.4101244 L9,17.5 L9,18.5 C9,18.7761424 9.22385763,19 9.5,19 L9.5,19 L13,19 L13,21.5 C13,21.7454599 13.1768752,21.9496084 13.4101244,21.9919443 L13.5,22 L14.5,22 C14.7761424,22 15,21.7761424 15,21.5 L15,21.5 L15,19 L18.5,19 C18.7454599,19 18.9496084,18.8231248 18.9919443,18.5898756 L19,18.5 L19,17.5 C19,17.2238576 18.7761424,17 18.5,17 L18.5,17 L15,17 L15,15 L18.5,15 C18.7454599,15 18.9496084,14.8231248 18.9919443,14.5898756 L19,14.5 L19,13.5 C19,13.2238576 18.7761424,13 18.5,13 L18.5,13 L15,13 L15,12.5 C15,12.4730676 14.9978706,12.4466325 14.993771,12.420854 L18.4748737,8.93933983 C18.6701359,8.74407768 18.6701359,8.42749519 18.4748737,8.23223305 L18.4748737,8.23223305 L17.767767,7.52512627 C17.5725048,7.32986412 17.2559223,7.32986412 17.0606602,7.52512627 L17.0606602,7.52512627 L14,10.586 Z" id="椭圆形-2"></path>
                                </g>
                            </g>
                        </g>
                    </g>
                </g>
            </g>
        </g>
    </g>
</svg>