<?xml version="1.0" standalone="no"?><!DOCTYPE svg PUBLIC "-//W3C//DTD SVG 1.1//EN" "http://www.w3.org/Graphics/SVG/1.1/DTD/svg11.dtd"><svg t="1619588990726" class="icon" viewBox="0 0 1024 1024" version="1.1" xmlns="http://www.w3.org/2000/svg" p-id="2161" xmlns:xlink="http://www.w3.org/1999/xlink" width="200" height="200"><defs><style type="text/css"></style></defs><path d="M341.333333 0a341.333333 341.333333 0 1 1 0 682.666667 341.333333 341.333333 0 0 1 0-682.666667z m0 85.333333a256 256 0 1 0 0 512 256 256 0 0 0 0-512zM896 85.333333a128 128 0 1 1 0 256 128 128 0 0 1 0-256z m0 85.333334a42.666667 42.666667 0 1 0 0 85.333333 42.666667 42.666667 0 0 0 0-85.333333zM213.333333 768a128 128 0 1 1 0 256 128 128 0 0 1 0-256z m0 85.333333a42.666667 42.666667 0 1 0 0 85.333334 42.666667 42.666667 0 0 0 0-85.333334zM810.666667 597.333333a213.333333 213.333333 0 1 1 0 426.666667 213.333333 213.333333 0 0 1 0-426.666667z m0 85.333334a128 128 0 1 0 0 256 128 128 0 0 0 0-256z" p-id="2162"></path></svg>