<?xml version="1.0" standalone="no"?><!DOCTYPE svg PUBLIC "-//W3C//DTD SVG 1.1//EN" "http://www.w3.org/Graphics/SVG/1.1/DTD/svg11.dtd"><svg t="1606894231711" class="icon" viewBox="0 0 1024 1024" version="1.1" xmlns="http://www.w3.org/2000/svg" p-id="1905" xmlns:xlink="http://www.w3.org/1999/xlink" width="200" height="200"><defs><style type="text/css"></style></defs><path d="M972.8 102.4v614.4a102.4 102.4 0 0 1-102.4 102.4H153.6a102.4 102.4 0 0 1-102.4-102.4V102.4h921.6z m-76.8 76.8h-768V716.8a25.6 25.6 0 0 0 20.992 25.1904L153.6 742.4h716.8a25.6 25.6 0 0 0 25.1904-20.992L896 716.8V179.2z" p-id="1906"></path><path d="M0 102.4m38.4 0l947.2 0q38.4 0 38.4 38.4l0 0q0 38.4-38.4 38.4l-947.2 0q-38.4 0-38.4-38.4l0 0q0-38.4 38.4-38.4Z" p-id="1907"></path><path d="M215.137432 920.956768m27.1529-27.152901l126.713535-126.713535q27.1529-27.1529 54.305801 0l0 0q27.1529 27.1529 0 54.305801l-126.713535 126.713535q-27.1529 27.1529-54.305801 0l0 0q-27.1529-27.1529 0-54.305801Z"p-id="1908"></path><path d="M754.556768 975.262568m-27.152901-27.1529l-126.713535-126.713535q-27.1529-27.1529 0-54.305801l0 0q27.1529-27.1529 54.305801 0l126.713535 126.713535q27.1529 27.1529 0 54.305801l0 0q-27.1529 27.1529-54.305801 0Z"p-id="1909"></path><path d="M737.28 284.16a38.4 38.4 0 0 1 64.512 41.2672l-3.072 4.8128-153.6 204.8a38.4 38.4 0 0 1-39.5264 14.336l-5.4784-1.7408-227.0208-90.8288-85.1456 127.6928a38.4 38.4 0 0 1-48.2816 13.4656l-4.9664-2.816a38.4 38.4 0 0 1-13.4656-48.2816l2.816-4.9664 102.4-153.6a38.4 38.4 0 0 1 40.4992-16.128l5.7344 1.792 228.6592 91.4432L737.28 284.16z" p-id="1910"></path></svg>