<?xml version="1.0" encoding="UTF-8"?>
<svg width="62px" height="62px" viewBox="0 0 62 62" version="1.1" xmlns="http://www.w3.org/2000/svg" xmlns:xlink="http://www.w3.org/1999/xlink">
    <title>icon_paid_in_54</title>
    <defs>
        <linearGradient x1="-3.54931021%" y1="0%" x2="100%" y2="100%" id="linearGradient-1">
            <stop stop-color="#34A7FF" offset="0%"></stop>
            <stop stop-color="#1B8CFC" offset="100%"></stop>
        </linearGradient>
        <circle id="path-2" cx="27" cy="27" r="27"></circle>
        <filter x="-13.0%" y="-9.3%" width="125.9%" height="125.9%" filterUnits="objectBoundingBox" id="filter-3">
            <feOffset dx="0" dy="2" in="SourceAlpha" result="shadowOffsetOuter1"></feOffset>
            <feGaussianBlur stdDeviation="2" in="shadowOffsetOuter1" result="shadowBlurOuter1"></feGaussianBlur>
            <feColorMatrix values="0 0 0 0 0.105882353   0 0 0 0 0.549019608   0 0 0 0 0.988235294  0 0 0 0.2 0" type="matrix" in="shadowBlurOuter1"></feColorMatrix>
        </filter>
        <filter x="-27.1%" y="-23.2%" width="154.2%" height="146.4%" filterUnits="objectBoundingBox" id="filter-4">
            <feOffset dx="1" dy="1" in="SourceAlpha" result="shadowOffsetOuter1"></feOffset>
            <feGaussianBlur stdDeviation="1" in="shadowOffsetOuter1" result="shadowBlurOuter1"></feGaussianBlur>
            <feColorMatrix values="0 0 0 0 0   0 0 0 0 0.252232143   0 0 0 0 0.5  0 0 0 0.1 0" type="matrix" in="shadowBlurOuter1" result="shadowMatrixOuter1"></feColorMatrix>
            <feMerge>
                <feMergeNode in="shadowMatrixOuter1"></feMergeNode>
                <feMergeNode in="SourceGraphic"></feMergeNode>
            </feMerge>
        </filter>
    </defs>
    <g id="核销管理系统-1.3" stroke="none" stroke-width="1" fill="none" fill-rule="evenodd">
        <g id="5-1-数据看板-停车缴费统计" transform="translate(-1256.000000, -200.000000)">
            <g id="内容区" transform="translate(0.000000, 60.000000)">
                <g id="右侧内容" transform="translate(240.000000, 14.000000)">
                    <g id="缴费统计" transform="translate(0.000000, 46.000000)">
                        <g id="2" transform="translate(567.000000, 62.000000)">
                            <g id="icon_paid_in_54" transform="translate(453.000000, 20.000000)">
                                <g id="椭圆形">
                                    <use fill="black" fill-opacity="1" filter="url(#filter-3)" xlink:href="#path-2"></use>
                                    <use fill="url(#linearGradient-1)" fill-rule="evenodd" xlink:href="#path-2"></use>
                                </g>
                                <g id="icon" filter="url(#filter-4)" transform="translate(15.000000, 13.000000)" fill="#FFFFFF">
                                    <path d="M22,6 C23.1045695,6 24,6.8954305 24,8 L24,12 L16,12 C15.4477153,12 15,12.4477153 15,13 L15,13 L15,18 C15,18.5522847 15.4477153,19 16,19 L16,19 L24,19 L24,23 C24,24.1045695 23.1045695,25 22,25 L2,25 C0.8954305,25 1.3527075e-16,24.1045695 0,23 L0,8 C-1.3527075e-16,6.8954305 0.8954305,6 2,6 L22,6 Z M18.5,14 C19.3284271,14 20,14.6715729 20,15.5 C20,16.3284271 19.3284271,17 18.5,17 C17.6715729,17 17,16.3284271 17,15.5 C17,14.6715729 17.6715729,14 18.5,14 Z M18.2564873,1.43969262 L19.552,4.99944061 L5.55,4.99944061 L16.9747746,0.842020143 C17.4937525,0.653127634 18.0675948,0.920714717 18.2564873,1.43969262 Z" id="矩形-2"></path>
                                </g>
                            </g>
                        </g>
                    </g>
                </g>
            </g>
        </g>
    </g>
</svg>