<?xml version="1.0" standalone="no"?><!DOCTYPE svg PUBLIC "-//W3C//DTD SVG 1.1//EN" "http://www.w3.org/Graphics/SVG/1.1/DTD/svg11.dtd"><svg t="1609392928216" class="icon" viewBox="0 0 1024 1024" version="1.1" xmlns="http://www.w3.org/2000/svg" p-id="1720" xmlns:xlink="http://www.w3.org/1999/xlink" width="200" height="200"><defs><style type="text/css"></style></defs><path d="M329.095843 0.146265a36.566205 36.566205 0 0 1 36.566205 36.566205v292.529638a36.566205 36.566205 0 0 1-29.984288 35.981146l-6.581917 0.585059h-292.529638a36.566205 36.566205 0 0 1 0-73.13241h204.25882L18.5025 70.353378A36.566205 36.566205 0 1 1 70.353378 18.795029L292.529639 241.044422V36.639337a36.566205 36.566205 0 0 1 36.566204-36.566205zM1023.853735 329.242108a36.566205 36.566205 0 0 1-36.566205 36.566205h-292.529638a36.566205 36.566205 0 0 1-35.981146-29.984288L658.191687 329.242108v-292.529638a36.566205 36.566205 0 0 1 73.13241 0v204.25882l222.322525-222.322526a36.566205 36.566205 0 1 1 51.631481 51.777746l-222.249393 222.322526H987.28753a36.566205 36.566205 0 0 1 36.566205 36.566205zM694.757892 1024a36.566205 36.566205 0 0 1-36.566205-36.566205v-292.529638a36.566205 36.566205 0 0 1 29.984288-35.981146l6.581917-0.585059h292.529638a36.566205 36.566205 0 1 1 0 73.132409h-204.25882l222.322526 222.322526a36.566205 36.566205 0 1 1-51.777746 51.704613L731.324097 783.174975v204.25882a36.566205 36.566205 0 0 1-36.566205 36.566205zM0 694.904157a36.566205 36.566205 0 0 1 36.566205-36.566205h292.529638a36.566205 36.566205 0 0 1 35.981146 29.984288l0.585059 6.581917v292.529638a36.566205 36.566205 0 1 1-73.132409 0V783.248107L70.207113 1005.570633a36.566205 36.566205 0 1 1-51.631481-51.704614l222.249393-222.322525H36.566205a36.566205 36.566205 0 0 1-36.566205-36.566205z" p-id="1721"></path></svg>