<?xml version="1.0" standalone="no"?><!DOCTYPE svg PUBLIC "-//W3C//DTD SVG 1.1//EN" "http://www.w3.org/Graphics/SVG/1.1/DTD/svg11.dtd"><svg t="1609392934317" class="icon" viewBox="0 0 1024 1024" version="1.1" xmlns="http://www.w3.org/2000/svg" p-id="1970" xmlns:xlink="http://www.w3.org/1999/xlink" width="200" height="200"><defs><style type="text/css"></style></defs><path d="M554.586353 822.633412a60.235294 60.235294 0 1 1-85.172706 85.172706 60.235294 60.235294 0 0 1 85.172706-85.172706zM157.997176 322.861176c3.915294 6.927059 8.854588 13.492706 14.757648 19.395765l47.887058 47.887059a558.682353 558.682353 0 0 0-102.640941 81.076706 45.176471 45.176471 0 1 1-63.849412-63.849412c28.551529-28.551529 59.030588-53.910588 91.196236-76.016941zM245.76 599.04A45.176471 45.176471 0 1 1 181.910588 535.130353a467.064471 467.064471 0 0 1 104.809412-78.908235L353.942588 523.444706c-39.152941 18.070588-75.896471 43.248941-108.122353 75.595294z m127.698824 127.698824a45.176471 45.176471 0 1 1-63.849412-63.849412 284.912941 284.912941 0 0 1 113.844706-69.872941l76.8 76.8c-46.140235 2.710588-91.497412 21.684706-126.735059 56.982588z m359.484235-15.420236a45.176471 45.176471 0 1 1-63.849412 63.849412L200.583529 306.657882a45.176471 45.176471 0 0 1 63.909647-63.849411l468.510118 468.510117z m236.845176-303.947294a45.176471 45.176471 0 0 1-63.849411 63.849412 556.574118 556.574118 0 0 0-501.458824-152.756706l-74.691765-74.691765A647.408941 647.408941 0 0 1 969.788235 407.311059z m-127.698823 127.698824a45.176471 45.176471 0 0 1-63.969883 63.969882A374.723765 374.723765 0 0 0 581.270588 495.134118L485.135059 399.179294a465.618824 465.618824 0 0 1 356.894117 135.951059z" p-id="1971"></path></svg>