<?xml version="1.0" standalone="no"?><!DOCTYPE svg PUBLIC "-//W3C//DTD SVG 1.1//EN" "http://www.w3.org/Graphics/SVG/1.1/DTD/svg11.dtd"><svg t="1615944580910" class="icon" viewBox="0 0 1024 1024" version="1.1" xmlns="http://www.w3.org/2000/svg" p-id="1852" xmlns:xlink="http://www.w3.org/1999/xlink" width="200" height="200"><defs><style type="text/css"></style></defs><path d="M548.571429 20.918857l370.249142 213.796572a73.142857 73.142857 0 0 1 36.571429 63.341714V725.577143a73.142857 73.142857 0 0 1-36.571429 63.341714L548.571429 1002.788571a73.142857 73.142857 0 0 1-73.142858 0l-370.249142-213.796571a73.142857 73.142857 0 0 1-36.571429-63.341714V298.057143a73.142857 73.142857 0 0 1 36.571429-63.341714L475.428571 20.918857a73.142857 73.142857 0 0 1 73.142858 0z m-73.142858 84.48L178.249143 276.918857a73.142857 73.142857 0 0 0-36.571429 63.341714v343.04a73.142857 73.142857 0 0 0 36.571429 63.341715L475.428571 918.162286a73.142857 73.142857 0 0 0 73.142858 0l297.106285-171.52a73.142857 73.142857 0 0 0 36.571429-63.341715v-343.04a73.142857 73.142857 0 0 0-36.571429-63.341714L548.571429 105.398857a73.142857 73.142857 0 0 0-73.142858 0z" p-id="1853"></path><path d="M512 365.568a146.285714 146.285714 0 1 1 0 292.571429 146.285714 146.285714 0 0 1 0-292.571429z m0 73.142857a73.142857 73.142857 0 1 0 0 146.285714 73.142857 73.142857 0 0 0 0-146.285714z" p-id="1854"></path></svg>