<?xml version="1.0" encoding="UTF-8"?>
<svg width="12px" height="12px" viewBox="0 0 12 12" version="1.1" xmlns="http://www.w3.org/2000/svg" xmlns:xlink="http://www.w3.org/1999/xlink">
    <title>icon_download</title>
    <g id="核销管理系统-1.3" stroke="none" stroke-width="1" fill="none" fill-rule="evenodd">
        <g id="5-1-数据看板-停车缴费统计" transform="translate(-1818.000000, -620.000000)" fill="#0D73FF">
            <g id="内容区" transform="translate(0.000000, 60.000000)">
                <g id="右侧内容" transform="translate(240.000000, 14.000000)">
                    <g id="缴费统计" transform="translate(0.000000, 356.000000)">
                        <g id="柱形图" transform="translate(30.000000, 186.000000)">
                            <g id="btn" transform="translate(1548.000000, 1.000000)">
                                <g id="icon_download" transform="translate(0.000000, 3.000000)">
                                    <path d="M0.5,12 C0.223857625,12 0,11.7761424 0,11.5 L0,8.5 C0,8.22385763 0.223857625,8 0.5,8 C0.776142375,8 1,8.22385763 1,8.5 L1,11 L11,11 L11,8.5 C11,8.22385763 11.2238576,8 11.5,8 C11.7761424,8 12,8.22385763 12,8.5 L12,11.5 C12,11.7454599 11.8231248,11.9496084 11.5898756,11.9919443 L11.5,12 L0.5,12 Z" id="路径"></path>
                                    <path d="M5.99289322,0 C6.26903559,0 6.49289322,0.223857625 6.49289322,0.5 L6.49210678,7.793 L9.53264069,4.75355339 C9.72790283,4.55829124 10.0444853,4.55829124 10.2397475,4.75355339 C10.4350096,4.94881554 10.4350096,5.26539803 10.2397475,5.46066017 L6.35066017,9.34974747 C6.32525326,9.37515438 6.29779233,9.39725543 6.26881193,9.41605061 C6.19027101,9.46929251 6.09516817,9.5 5.99289322,9.5 C5.83202933,9.5 5.6889084,9.42403336 5.59744803,9.30601768 L1.75355339,5.46066017 C1.55829124,5.26539803 1.55829124,4.94881554 1.75355339,4.75355339 C1.94881554,4.55829124 2.26539803,4.55829124 2.46066017,4.75355339 L5.49210678,7.785 L5.49289322,0.5 C5.49289322,0.223857625 5.71675084,0 5.99289322,0 Z" id="路径"></path>
                                </g>
                            </g>
                        </g>
                    </g>
                </g>
            </g>
        </g>
    </g>
</svg>