<?xml version="1.0" standalone="no"?><!DOCTYPE svg PUBLIC "-//W3C//DTD SVG 1.1//EN" "http://www.w3.org/Graphics/SVG/1.1/DTD/svg11.dtd"><svg t="1614153133661" class="icon" viewBox="0 0 1024 1024" version="1.1" xmlns="http://www.w3.org/2000/svg" p-id="1918" xmlns:xlink="http://www.w3.org/1999/xlink" width="200" height="200"><defs><style type="text/css"></style></defs><path d="M511.926868 0.146265a511.926868 511.926868 0 1 1 0 1023.853735 511.926868 511.926868 0 0 1 0-1023.853735zM511.926868 85.564919a426.581346 426.581346 0 1 0 0 853.235824A426.581346 426.581346 0 0 0 511.926868 85.491787z" p-id="1919"></path><path d="M300.720469 457.296958a42.636195 42.636195 0 1 1 60.334237-60.334238L511.926868 547.834881l150.872161-150.872161a42.636195 42.636195 0 0 1 60.261105 60.334238L542.130553 638.226539c-14.626482 14.626482-37.443794 16.674189-54.410513 4.973004l-5.996858-4.973004-180.856449-180.929581h-0.146264z" p-id="1920"></path></svg>