<?xml version="1.0" standalone="no"?><!DOCTYPE svg PUBLIC "-//W3C//DTD SVG 1.1//EN" "http://www.w3.org/Graphics/SVG/1.1/DTD/svg11.dtd"><svg t="1614153137258" class="icon" viewBox="0 0 1024 1024" version="1.1" xmlns="http://www.w3.org/2000/svg" p-id="2044" xmlns:xlink="http://www.w3.org/1999/xlink" width="200" height="200"><defs><style type="text/css"></style></defs><path d="M853.333333 256v663.296C853.333333 977.066667 807.509333 1024 750.933333 1024H273.066667c-56.576 0-102.4-46.933333-102.4-104.704V256h682.666666z m-68.266666 69.802667H238.933333v593.493333c0 17.066667 12.117333 31.402667 27.989334 34.304l6.144 0.597333h477.866666c16.725333 0 30.72-12.373333 33.621334-28.672l0.512-6.229333V325.802667z" p-id="2045"></path><path d="M384 426.666667c28.416 0 42.666667 14.250667 42.666667 42.666666v341.333334c0 28.416-14.250667 42.666667-42.666667 42.666666-28.416 0-42.666667-14.250667-42.666667-42.666666v-341.333334c0-28.416 14.250667-42.666667 42.666667-42.666666zM640 426.666667c28.416 0 42.666667 14.250667 42.666667 42.666666v341.333334c0 28.416-14.250667 42.666667-42.666667 42.666666-28.416 0-42.666667-14.250667-42.666667-42.666666v-341.333334c0-28.416 14.250667-42.666667 42.666667-42.666666zM128 85.333333h768c28.416 0 42.666667 14.250667 42.666667 42.666667 0 28.416-14.250667 42.666667-42.666667 42.666667h-768c-28.416 0-42.666667-14.250667-42.666667-42.666667 0-28.416 14.250667-42.666667 42.666667-42.666667z" p-id="2046"></path><path d="M426.666667 0h170.666666c56.917333 0 85.333333 28.416 85.333334 85.333333s-28.416 85.333333-85.333334 85.333334H426.666667c-56.917333 0-85.333333-28.416-85.333334-85.333334s28.416-85.333333 85.333334-85.333333z" p-id="2047"></path></svg>