<?xml version="1.0" standalone="no"?><!DOCTYPE svg PUBLIC "-//W3C//DTD SVG 1.1//EN" "http://www.w3.org/Graphics/SVG/1.1/DTD/svg11.dtd"><svg t="1606894176283" class="icon" viewBox="0 0 1024 1024" version="1.1" xmlns="http://www.w3.org/2000/svg" p-id="1525" xmlns:xlink="http://www.w3.org/1999/xlink" width="200" height="200"><defs><style type="text/css"></style></defs><path d="M574.8736 48.896l358.4 278.7328A102.4 102.4 0 0 1 972.8 408.576V921.6a102.4 102.4 0 0 1-102.4 102.4H153.6a102.4 102.4 0 0 1-102.4-102.4V408.4736A102.4 102.4 0 0 1 90.7264 327.68l358.4-278.7328a102.4 102.4 0 0 1 125.7472 0zM500.4288 106.8544l-4.1472 2.6624-358.4 278.7328a25.6 25.6 0 0 0-9.472 15.5648l-0.4096 4.6592V921.6a25.6 25.6 0 0 0 20.992 25.1904L153.6 947.2h716.8a25.6 25.6 0 0 0 25.1904-20.992L896 921.6V408.4736a25.6 25.6 0 0 0-6.4512-16.9984l-3.4304-3.2256-358.4-278.7328a25.6 25.6 0 0 0-27.2896-2.6624zM627.2 716.8a38.4 38.4 0 1 1 0 76.8h-230.4a38.4 38.4 0 1 1 0-76.8h230.4z" p-id="1526"></path></svg>