<?xml version="1.0" standalone="no"?><!DOCTYPE svg PUBLIC "-//W3C//DTD SVG 1.1//EN" "http://www.w3.org/Graphics/SVG/1.1/DTD/svg11.dtd"><svg t="1619338511210" class="icon" viewBox="0 0 1024 1024" version="1.1" xmlns="http://www.w3.org/2000/svg" p-id="1971" xmlns:xlink="http://www.w3.org/1999/xlink" width="200" height="200"><defs><style type="text/css"></style></defs><path d="M810.666667 0A128 128 0 0 1 938.666667 128V170.666667a42.666667 42.666667 0 1 1-85.333334 0v-42.666667a42.666667 42.666667 0 0 0-42.666666-42.666667h-597.333334a42.666667 42.666667 0 0 0-42.666666 42.666667v768a42.666667 42.666667 0 0 0 42.666666 42.666667h597.333334a42.666667 42.666667 0 0 0 42.666666-42.666667V853.333333l0.682667-7.68A42.666667 42.666667 0 0 1 938.666667 853.333333v42.666667A128 128 0 0 1 810.666667 1024h-597.333334A128 128 0 0 1 85.333333 896v-768A128 128 0 0 1 213.333333 0h597.333334z m-76.458667 270.848l211.114667 211.114667a42.666667 42.666667 0 0 1 4.949333 54.442666l-4.949333 5.973334L734.208 753.493333a42.666667 42.666667 0 1 1-60.416-60.330666L812.373333 554.666667 384 554.666667a42.666667 42.666667 0 0 1 0-85.333334h427.861333L673.792 331.093333a42.666667 42.666667 0 1 1 60.416-60.245333z" p-id="1972"></path></svg>