<?xml version="1.0" standalone="no"?><!DOCTYPE svg PUBLIC "-//W3C//DTD SVG 1.1//EN" "http://www.w3.org/Graphics/SVG/1.1/DTD/svg11.dtd"><svg t="1615958765396" class="icon" viewBox="0 0 1024 1024" version="1.1" xmlns="http://www.w3.org/2000/svg" p-id="2094" xmlns:xlink="http://www.w3.org/1999/xlink" width="200" height="200"><defs><style type="text/css"></style></defs><path d="M511.914681 0.170638a511.914681 511.914681 0 1 1 0 1023.829362A511.914681 511.914681 0 0 1 511.914681 0.170638z m0 85.319114a426.595567 426.595567 0 1 0 0 853.191135A426.595567 426.595567 0 0 0 511.914681 85.489752z" p-id="2095"></path><path d="M469.255124 256.127979m42.659557 0l0 0q42.659557 0 42.659557 42.659556l0 426.595568q0 42.659557-42.659557 42.659557l0 0q-42.659557 0-42.659557-42.659557l0-426.595568q0-42.659557 42.659557-42.659556Z" p-id="2096"></path><path d="M255.95734 469.255124m42.659557 0l426.595568 0q42.659557 0 42.659556 42.659557l0 0q0 42.659557-42.659556 42.659557l-426.595568 0q-42.659557 0-42.659557-42.659557l0 0q0-42.659557 42.659557-42.659557Z" p-id="2097"></path></svg>