<?xml version="1.0" encoding="UTF-8"?>
<svg width="62px" height="62px" viewBox="0 0 62 62" version="1.1" xmlns="http://www.w3.org/2000/svg" xmlns:xlink="http://www.w3.org/1999/xlink">
    <title>icon_watch_54</title>
    <defs>
        <linearGradient x1="-3.54931021%" y1="0%" x2="100%" y2="100%" id="linearGradient-1">
            <stop stop-color="#0BD9A6" offset="0%"></stop>
            <stop stop-color="#0BD969" offset="100%"></stop>
        </linearGradient>
        <circle id="path-2" cx="27" cy="27" r="27"></circle>
        <filter x="-13.0%" y="-9.3%" width="125.9%" height="125.9%" filterUnits="objectBoundingBox" id="filter-3">
            <feOffset dx="0" dy="2" in="SourceAlpha" result="shadowOffsetOuter1"></feOffset>
            <feGaussianBlur stdDeviation="2" in="shadowOffsetOuter1" result="shadowBlurOuter1"></feGaussianBlur>
            <feColorMatrix values="0 0 0 0 0.0431372549   0 0 0 0 0.850980392   0 0 0 0 0.411764706  0 0 0 0.2 0" type="matrix" in="shadowBlurOuter1"></feColorMatrix>
        </filter>
        <path d="M15,0 C19.9670521,0 24.7904992,2.78560173 29.4703415,8.35680518 C29.7827374,8.72870251 29.7827374,9.27129505 29.4703416,9.64319239 L29.4703416,9.64319239 L29.15104,10.0187317 C24.5711783,15.3395772 19.8541649,18 15,18 C10.0329479,18 5.20950077,15.2143983 0.529658477,9.64319482 C0.217262623,9.27129749 0.217262611,8.72870495 0.529658448,8.35680761 L0.529658448,8.35680761 L0.848959977,7.9812683 C5.42882173,2.66042277 10.1458351,0 15,0 Z M15,5 C12.790861,5 11,6.790861 11,9 C11,11.209139 12.790861,13 15,13 C17.209139,13 19,11.209139 19,9 C19,6.790861 17.209139,5 15,5 Z" id="path-4"></path>
        <filter x="-8.5%" y="-13.9%" width="123.8%" height="138.9%" filterUnits="objectBoundingBox" id="filter-5">
            <feOffset dx="1" dy="1" in="SourceAlpha" result="shadowOffsetOuter1"></feOffset>
            <feGaussianBlur stdDeviation="1" in="shadowOffsetOuter1" result="shadowBlurOuter1"></feGaussianBlur>
            <feColorMatrix values="0 0 0 0 0   0 0 0 0 0.6   0 0 0 0 0.317647059  0 0 0 0.1 0" type="matrix" in="shadowBlurOuter1"></feColorMatrix>
        </filter>
    </defs>
    <g id="核销管理系统-1.3" stroke="none" stroke-width="1" fill="none" fill-rule="evenodd">
        <g id="5-2-数据看板-刷红包统计" transform="translate(-709.000000, -314.000000)">
            <g id="内容区" transform="translate(0.000000, 60.000000)">
                <g id="右侧内容" transform="translate(240.000000, 14.000000)">
                    <g id="刷红包总计" transform="translate(0.000000, 46.000000)">
                        <g id="4" transform="translate(20.000000, 176.000000)">
                            <g id="icon_watch_54" transform="translate(453.000000, 20.000000)">
                                <g id="椭圆形">
                                    <use fill="black" fill-opacity="1" filter="url(#filter-3)" xlink:href="#path-2"></use>
                                    <use fill="url(#linearGradient-1)" fill-rule="evenodd" xlink:href="#path-2"></use>
                                </g>
                                <g id="椭圆形-3" transform="translate(12.000000, 18.000000)">
                                    <use fill="black" fill-opacity="1" filter="url(#filter-5)" xlink:href="#path-4"></use>
                                    <use fill="#FFFFFF" fill-rule="evenodd" xlink:href="#path-4"></use>
                                </g>
                            </g>
                        </g>
                    </g>
                </g>
            </g>
        </g>
    </g>
</svg>