<?xml version="1.0" standalone="no"?><!DOCTYPE svg PUBLIC "-//W3C//DTD SVG 1.1//EN" "http://www.w3.org/Graphics/SVG/1.1/DTD/svg11.dtd"><svg t="1604049094713" class="icon" viewBox="0 0 1117 1024" version="1.1" xmlns="http://www.w3.org/2000/svg" p-id="1487" xmlns:xlink="http://www.w3.org/1999/xlink" width="218.1640625" height="200"><defs><style type="text/css"></style></defs><path d="M0 636.748037m45.482003 0l0 0q45.482003 0 45.482002 45.482002l0 272.892016q0 45.482003-45.482002 45.482003l0 0q-45.482003 0-45.482003-45.482003l0-272.892016q0-45.482003 45.482003-45.482002Z" fill="#FFFFFF" p-id="1488"></path><path d="M1000.604058 636.748037m45.482002 0l0 0q45.482003 0 45.482003 45.482002l0 272.892016q0 45.482003-45.482003 45.482003l0 0q-45.482003 0-45.482002-45.482003l0-272.892016q0-45.482003 45.482002-45.482002Z" fill="#FFFFFF" p-id="1489"></path><path d="M0 909.640053m45.482003 0l1000.604057 0q45.482003 0 45.482003 45.482002l0 0q0 45.482003-45.482003 45.482003l-1000.604057 0q-45.482003 0-45.482003-45.482003l0 0q0-45.482003 45.482003-45.482002Z" fill="#FFFFFF" p-id="1490"></path><path d="M500.302029 0m45.482003 0l0 0q45.482003 0 45.482002 45.482003l0 636.748036q0 45.482003-45.482002 45.482003l0 0q-45.482003 0-45.482003-45.482003l0-636.748036q0-45.482003 45.482003-45.482003Z" fill="#FFFFFF" p-id="1491"></path><path d="M577.803361 13.280745a45.482003 45.482003 0 0 1 0 64.402515L320.557155 334.929467a45.482003 45.482003 0 0 1-64.402516-64.311551L513.49181 13.280745a45.482003 45.482003 0 0 1 64.311551 0z" fill="#FFFFFF" p-id="1492"></path><path d="M514.310486 13.098817a45.482003 45.482003 0 0 1 64.311551 0l257.246207 257.246207a45.482003 45.482003 0 0 1-64.311551 64.311551L514.310486 77.410368a45.482003 45.482003 0 0 1 0-64.311551z" fill="#FFFFFF" p-id="1493"></path></svg>