<?xml version="1.0" encoding="UTF-8"?>
<svg width="62px" height="62px" viewBox="0 0 62 62" version="1.1" xmlns="http://www.w3.org/2000/svg" xmlns:xlink="http://www.w3.org/1999/xlink">
    <title>icon_verification_time_54</title>
    <defs>
        <linearGradient x1="-3.54931021%" y1="0%" x2="100%" y2="100%" id="linearGradient-1">
            <stop stop-color="#34A7FF" offset="0%"></stop>
            <stop stop-color="#1B8CFC" offset="100%"></stop>
        </linearGradient>
        <circle id="path-2" cx="27" cy="27" r="27"></circle>
        <filter x="-13.0%" y="-9.3%" width="125.9%" height="125.9%" filterUnits="objectBoundingBox" id="filter-3">
            <feOffset dx="0" dy="2" in="SourceAlpha" result="shadowOffsetOuter1"></feOffset>
            <feGaussianBlur stdDeviation="2" in="shadowOffsetOuter1" result="shadowBlurOuter1"></feGaussianBlur>
            <feColorMatrix values="0 0 0 0 0.105882353   0 0 0 0 0.549019608   0 0 0 0 0.988235294  0 0 0 0.2 0" type="matrix" in="shadowBlurOuter1"></feColorMatrix>
        </filter>
        <filter x="-23.2%" y="-23.2%" width="146.4%" height="146.4%" filterUnits="objectBoundingBox" id="filter-4">
            <feOffset dx="1" dy="1" in="SourceAlpha" result="shadowOffsetOuter1"></feOffset>
            <feGaussianBlur stdDeviation="1" in="shadowOffsetOuter1" result="shadowBlurOuter1"></feGaussianBlur>
            <feColorMatrix values="0 0 0 0 0   0 0 0 0 0.252232143   0 0 0 0 0.5  0 0 0 0.1 0" type="matrix" in="shadowBlurOuter1" result="shadowMatrixOuter1"></feColorMatrix>
            <feMerge>
                <feMergeNode in="shadowMatrixOuter1"></feMergeNode>
                <feMergeNode in="SourceGraphic"></feMergeNode>
            </feMerge>
        </filter>
    </defs>
    <g id="核销管理系统-1.3" stroke="none" stroke-width="1" fill="none" fill-rule="evenodd">
        <g id="5-4-数据看板-礼包抽奖统计" transform="translate(-1255.000000, -2109.000000)">
            <g id="内容区" transform="translate(0.000000, 60.000000)">
                <g id="右侧内容" transform="translate(240.000000, 14.000000)">
                    <g id="核销统计" transform="translate(0.000000, 1955.000000)">
                        <g id="6" transform="translate(567.000000, 62.000000)">
                            <g id="icon_verification_time_54" transform="translate(452.000000, 20.000000)">
                                <g id="椭圆形">
                                    <use fill="black" fill-opacity="1" filter="url(#filter-3)" xlink:href="#path-2"></use>
                                    <use fill="url(#linearGradient-1)" fill-rule="evenodd" xlink:href="#path-2"></use>
                                </g>
                                <g id="icon" filter="url(#filter-4)" transform="translate(13.000000, 13.000000)" fill="#FFFFFF">
                                    <path d="M14,0 C21.7319865,0 28,6.2680135 28,14 C28,21.7319865 21.7319865,28 14,28 C6.2680135,28 0,21.7319865 0,14 C0,6.2680135 6.2680135,0 14,0 Z M20.0079221,10.5251263 C19.6173978,10.134602 18.9842328,10.134602 18.5937085,10.5251263 L18.5937085,10.5251263 L12.2297475,16.8890873 L9.40132034,14.0606602 C9.01079605,13.6701359 8.37763107,13.6701359 7.98710678,14.0606602 C7.59658249,14.4511845 7.59658249,15.0843494 7.98710678,15.4748737 L7.98710678,15.4748737 L11.5226407,19.0104076 L11.6098615,19.088114 C12.0023792,19.3989395 12.5742246,19.3730373 12.9368542,19.0104076 L12.9368542,19.0104076 L20.0079221,11.9393398 C20.3984464,11.5488155 20.3984464,10.9156506 20.0079221,10.5251263 Z" id="椭圆形-2"></path>
                                </g>
                            </g>
                        </g>
                    </g>
                </g>
            </g>
        </g>
    </g>
</svg>