<?xml version="1.0" standalone="no"?><!DOCTYPE svg PUBLIC "-//W3C//DTD SVG 1.1//EN" "http://www.w3.org/Graphics/SVG/1.1/DTD/svg11.dtd"><svg t="1611555272549" class="icon" viewBox="0 0 1024 1024" version="1.1" xmlns="http://www.w3.org/2000/svg" p-id="1656" xmlns:xlink="http://www.w3.org/1999/xlink" width="200" height="200"><defs><style type="text/css"></style></defs><path d="M899.876571 123.904a36.571429 36.571429 0 0 1 0 51.785143l-724.114285 724.114286a36.571429 36.571429 0 0 1-51.638857-51.785143l724.114285-724.114286a36.571429 36.571429 0 0 1 51.638857 0zM1024 511.853714c0 146.285714-229.229714 365.714286-512 365.714286-63.561143 0-124.342857-11.117714-180.589714-29.988571l59.465143-59.392A477.184 477.184 0 0 0 512 804.425143c221.330286 0 438.857143-171.739429 438.857143-292.571429 0-53.979429-43.373714-118.125714-111.177143-172.544l51.273143-51.273143C973.604571 358.619429 1024 443.245714 1024 511.853714z m-512-365.714285c63.634286 0 124.489143 11.117714 180.662857 29.988571l-59.538286 59.392A477.184 477.184 0 0 0 512 219.282286c-221.330286 0-438.857143 171.739429-438.857143 292.571428 0 53.979429 43.373714 118.052571 111.177143 172.544l-51.273143 51.2C50.395429 665.161143 0 580.461714 0 511.853714c0-146.285714 229.229714-365.714286 512-365.714285z m182.857143 365.714285a182.857143 182.857143 0 0 1-208.749714 181.028572l206.994285-206.848c1.170286 8.411429 1.755429 17.042286 1.755429 25.819428zM512 328.996571c8.777143 0 17.554286 0.585143 25.965714 1.828572L330.971429 537.6A182.857143 182.857143 0 0 1 512 328.996571z" p-id="1657"></path></svg>