<?xml version="1.0" encoding="UTF-8"?>
<svg width="62px" height="62px" viewBox="0 0 62 62" version="1.1" xmlns="http://www.w3.org/2000/svg" xmlns:xlink="http://www.w3.org/1999/xlink">
    <title>icon_user_54</title>
    <defs>
        <linearGradient x1="-3.54931021%" y1="0%" x2="100%" y2="100%" id="linearGradient-1">
            <stop stop-color="#F9A54C" offset="0%"></stop>
            <stop stop-color="#F9894C" offset="100%"></stop>
        </linearGradient>
        <circle id="path-2" cx="27" cy="27" r="27"></circle>
        <filter x="-13.0%" y="-9.3%" width="125.9%" height="125.9%" filterUnits="objectBoundingBox" id="filter-3">
            <feOffset dx="0" dy="2" in="SourceAlpha" result="shadowOffsetOuter1"></feOffset>
            <feGaussianBlur stdDeviation="2" in="shadowOffsetOuter1" result="shadowBlurOuter1"></feGaussianBlur>
            <feColorMatrix values="0 0 0 0 0.976470588   0 0 0 0 0.537254902   0 0 0 0 0.298039216  0 0 0 0.2 0" type="matrix" in="shadowBlurOuter1"></feColorMatrix>
        </filter>
        <filter x="-32.5%" y="-25.0%" width="165.0%" height="150.0%" filterUnits="objectBoundingBox" id="filter-4">
            <feOffset dx="1" dy="1" in="SourceAlpha" result="shadowOffsetOuter1"></feOffset>
            <feGaussianBlur stdDeviation="1" in="shadowOffsetOuter1" result="shadowBlurOuter1"></feGaussianBlur>
            <feColorMatrix values="0 0 0 0 0.6   0 0 0 0 0.211560694   0 0 0 0 0  0 0 0 0.1 0" type="matrix" in="shadowBlurOuter1" result="shadowMatrixOuter1"></feColorMatrix>
            <feMerge>
                <feMergeNode in="shadowMatrixOuter1"></feMergeNode>
                <feMergeNode in="SourceGraphic"></feMergeNode>
            </feMerge>
        </filter>
    </defs>
    <g id="核销管理系统-1.3" stroke="none" stroke-width="1" fill="none" fill-rule="evenodd">
        <g id="5-2-数据看板-刷红包统计" transform="translate(-1256.000000, -200.000000)">
            <g id="内容区" transform="translate(0.000000, 60.000000)">
                <g id="右侧内容" transform="translate(240.000000, 14.000000)">
                    <g id="刷红包总计" transform="translate(0.000000, 46.000000)">
                        <g id="2" transform="translate(567.000000, 62.000000)">
                            <g id="icon_user_54" transform="translate(453.000000, 20.000000)">
                                <g id="椭圆形">
                                    <use fill="black" fill-opacity="1" filter="url(#filter-3)" xlink:href="#path-2"></use>
                                    <use fill="url(#linearGradient-1)" fill-rule="evenodd" xlink:href="#path-2"></use>
                                </g>
                                <g id="icon" filter="url(#filter-4)" transform="translate(17.000000, 14.000000)" fill="#FFFFFF">
                                    <path d="M10,0 C15.5228475,0 20,4.4771525 20,10 C20,15.5228475 15.5228475,20 10,20 C4.4771525,20 0,15.5228475 0,10 C0,4.4771525 4.4771525,0 10,0 Z M13.9130387,13.0538238 C13.4470869,12.8890678 12.9291186,13.1152468 12.7561242,13.5590086 C12.3593911,14.5767001 11.2610296,15.285814 9.99746502,15.285814 C8.73813392,15.285814 7.64256449,14.5814284 7.24253469,13.5685116 C7.06755894,13.1254549 6.54858473,12.9013772 6.08337335,13.0680202 C5.61816197,13.2346631 5.38287951,13.7289223 5.55785526,14.171979 C6.22479512,15.8607397 7.99674898,17 9.99746502,17 C12.0050659,17 13.7818321,15.8529007 14.4434848,14.1556428 C14.6164793,13.7118809 14.3789904,13.2185798 13.9130387,13.0538238 Z" id="椭圆形-2"></path>
                                    <path d="M15.1807848,20.3602277 L17.2763932,24.5527864 C17.5233825,25.0467649 17.3231581,25.6474379 16.8291796,25.8944272 C16.6903242,25.9638549 16.5372111,26 16.381966,26 L3.61803399,26 C3.06574924,26 2.61803399,25.5522847 2.61803399,25 C2.61803399,24.8447549 2.65417908,24.6916418 2.7236068,24.5527864 L4.81948375,20.3604171 C6.28434909,21.393333 8.07132721,22 10,22 C11.9287907,22 13.7158694,21.3932588 15.1807848,20.3602277 Z" id="矩形-2"></path>
                                </g>
                            </g>
                        </g>
                    </g>
                </g>
            </g>
        </g>
    </g>
</svg>