<svg width="24" height="25" xmlns="http://www.w3.org/2000/svg"><path d="M4.796 3.36a1.124 1.124 0 0 1 1.567.22c.371.49.272 1.186-.222 1.555a9.651 9.651 0 0 0-3.904 7.754c0 5.353 4.371 9.692 9.763 9.692 5.392 0 9.763-4.34 9.763-9.692a9.652 9.652 0 0 0-3.911-7.76 1.105 1.105 0 0 1-.224-1.555c.37-.49 1.072-.59 1.566-.222A11.867 11.867 0 0 1 24 12.89c0 6.58-5.373 11.914-12 11.914S0 19.469 0 12.889c0-3.794 1.8-7.294 4.796-9.53zm8.323 5.55c0 .614-.501 1.11-1.119 1.11a1.115 1.115 0 0 1-1.119-1.11v-7.8C10.881.498 11.382 0 12 0s1.119.497 1.119 1.11v7.8z"/></svg>